<svg xmlns="http://www.w3.org/2000/svg"
     xmlns:xlink="http://www.w3.org/1999/xlink"
     version="1.1" x="0px" y="0px"
     viewBox="120 100 260 170"
     style="enable-background:new 120 150 260 100;"
     xml:space="preserve">
<g id="OBJECTS">
		<g>
			<path style="fill:#112B46;"
                  d="M171.063,204.233l69.302,40.012c5.963,3.443,13.31,3.443,19.273,0l69.302-40.012     c5.386-3.11,5.386-10.883,0-13.993l-69.302-40.012c-5.963-3.443-13.31-3.443-19.273,0l-69.302,40.012     C165.677,193.35,165.677,201.124,171.063,204.233z"/>
            <linearGradient id="SVGID_1_" gradientUnits="userSpaceOnUse" x1="250.0012" y1="130.4026" x2="250.0012"
                            y2="217.5165">
				<stop offset="0" style="stop-color:#3887FE"/>
                <stop offset="1" style="stop-color:#8338EA"/>
			</linearGradient>
            <path style="fill:url(#SVGID_1_);"
                  d="M171.063,184.721l69.302,40.011c5.963,3.443,13.31,3.443,19.273,0l69.302-40.011     c5.386-3.11,5.386-10.883,0-13.993l-69.302-40.012c-5.963-3.443-13.31-3.443-19.273,0l-69.302,40.012     C165.677,173.838,165.677,181.612,171.063,184.721z"/>
            <g>
				<defs>
					<path id="SVGID_00000009558171752271166790000011182781824845861545_"
                          d="M171.063,184.721l69.302,40.011       c5.963,3.443,13.31,3.443,19.273,0l69.302-40.011c5.386-3.11,5.386-10.883,0-13.993l-69.302-40.012       c-5.963-3.443-13.31-3.443-19.273,0l-69.302,40.012C165.677,173.838,165.677,181.612,171.063,184.721z"/>
				</defs>
                <clipPath id="SVGID_00000169559121366452335240000004188476744384242054_">
					<use xlink:href="#SVGID_00000009558171752271166790000011182781824845861545_"
                         style="overflow:visible;"/>
				</clipPath>
                <g style="clip-path:url(#SVGID_00000169559121366452335240000004188476744384242054_);">
					<g>
						<g>
							<path style="fill:#F9FBFC;"
                                  d="M170.943,187.027c-0.418,0-0.823-0.217-1.048-0.604c-0.333-0.578-0.136-1.317,0.442-1.651         l32.014-18.483c0.578-0.332,1.316-0.136,1.651,0.442c0.333,0.578,0.136,1.317-0.442,1.651l-32.014,18.483         C171.356,186.975,171.148,187.027,170.943,187.027z"/>
						</g>
                        <g>
							<path style="fill:#F9FBFC;"
                                  d="M184.676,194.046c-0.393,0-0.774-0.203-0.984-0.567c-0.314-0.544-0.128-1.238,0.415-1.552         l51.417-29.686c0.545-0.315,1.238-0.128,1.552,0.415c0.314,0.544,0.128,1.238-0.415,1.552l-51.417,29.686         C185.063,193.997,184.868,194.046,184.676,194.046z"/>
						</g>
                        <g>
							<path style="fill:#F9FBFC;"
                                  d="M233.691,225.829c-0.393,0-0.774-0.203-0.984-0.567c-0.314-0.544-0.128-1.238,0.415-1.552         l51.954-29.996c0.545-0.315,1.238-0.129,1.552,0.415c0.315,0.544,0.128,1.238-0.415,1.552l-51.954,29.996         C234.079,225.78,233.884,225.829,233.691,225.829z"/>
						</g>
                        <g>
							<path style="fill:#F9FBFC;"
                                  d="M220.922,218.181c-0.393,0-0.774-0.203-0.984-0.567c-0.314-0.544-0.128-1.238,0.415-1.552         l43.125-24.898v-14.364c0-0.406,0.216-0.781,0.567-0.983l21.031-12.143c0.545-0.315,1.238-0.128,1.552,0.415         c0.315,0.544,0.128,1.238-0.415,1.552l-20.464,11.815v14.364c0,0.406-0.216,0.781-0.567,0.983l-43.692,25.226         C221.31,218.132,221.114,218.181,220.922,218.181z"/>
						</g>
                        <g>
							<path style="fill:#F9FBFC;"
                                  d="M195.142,203.024c-0.393,0-0.774-0.203-0.984-0.567c-0.314-0.544-0.128-1.238,0.415-1.552         l58.719-33.902V152.75c0-0.627,0.509-1.136,1.136-1.136c0.627,0,1.136,0.509,1.136,1.136v14.909         c0,0.406-0.216,0.781-0.567,0.983l-59.286,34.23C195.529,202.976,195.334,203.024,195.142,203.024z"/>
						</g>
                        <g>
							<path style="fill:#F9FBFC;"
                                  d="M207.65,210.822c-0.393,0-0.774-0.203-0.984-0.567c-0.314-0.544-0.128-1.238,0.415-1.552         l36.071-20.825c0.546-0.316,1.238-0.128,1.552,0.415c0.314,0.544,0.128,1.238-0.415,1.552l-36.071,20.825         C208.038,210.773,207.843,210.822,207.65,210.822z"/>
						</g>
					</g>
                    <g>
						<path style="fill:#F9FBFC;"
                              d="M288.849,196.599c-1.355,0-2.713-0.307-3.772-0.918c-1.205-0.695-1.896-1.729-1.896-2.833        c0-1.099,0.684-2.124,1.877-2.813c2.1-1.214,5.396-1.207,7.508,0.012c1.205,0.695,1.896,1.729,1.896,2.833        c0,1.099-0.684,2.124-1.877,2.813C291.538,196.297,290.194,196.599,288.849,196.599z M288.791,191.394        c-0.949,0-1.896,0.203-2.598,0.608c-0.458,0.265-0.742,0.589-0.742,0.846c0,0.263,0.292,0.595,0.762,0.866        c1.424,0.821,3.823,0.826,5.234,0.012c0.458-0.265,0.742-0.589,0.742-0.846c0-0.263-0.292-0.595-0.762-0.866        C290.712,191.601,289.75,191.394,288.791,191.394z"/>
					</g>
                    <g>
						<path style="fill:#F9FBFC;"
                              d="M246.925,190.763c-1.355,0-2.713-0.307-3.772-0.918c-1.206-0.696-1.897-1.729-1.896-2.834        c0-1.098,0.685-2.123,1.877-2.811c2.099-1.213,5.396-1.206,7.507,0.011c1.206,0.696,1.898,1.729,1.898,2.834        c0,1.099-0.684,2.124-1.877,2.813C249.614,190.461,248.27,190.763,246.925,190.763z M246.867,185.559        c-0.949,0-1.895,0.202-2.598,0.607c-0.458,0.265-0.742,0.588-0.742,0.846c0,0.263,0.292,0.595,0.762,0.866        c1.424,0.821,3.822,0.827,5.234,0.012c0.458-0.265,0.742-0.589,0.742-0.846c0-0.263-0.292-0.595-0.762-0.866        C248.788,185.765,247.826,185.559,246.867,185.559z"/>
					</g>
                    <g>
						<path style="fill:#F9FBFC;"
                              d="M206.159,169.236c-1.355,0-2.713-0.306-3.771-0.918c-1.205-0.695-1.896-1.728-1.896-2.832        c0-1.099,0.684-2.124,1.877-2.813c2.1-1.213,5.396-1.208,7.508,0.011c1.206,0.696,1.897,1.729,1.896,2.834        c0,1.098-0.685,2.123-1.877,2.811C208.849,168.935,207.505,169.236,206.159,169.236z M206.104,164.032        c-0.949,0-1.896,0.202-2.6,0.608c-0.458,0.265-0.742,0.588-0.742,0.846c0,0.263,0.292,0.594,0.762,0.865        c1.422,0.821,3.82,0.826,5.234,0.012c0.458-0.265,0.742-0.588,0.742-0.846c0-0.263-0.292-0.595-0.762-0.866        C208.024,164.238,207.062,164.032,206.104,164.032z"/>
					</g>
                    <g>
						<path style="fill:#F9FBFC;"
                              d="M239.295,165.126c-1.355,0-2.713-0.306-3.771-0.918c-1.205-0.695-1.897-1.727-1.897-2.832        c0-1.099,0.684-2.124,1.877-2.813c2.101-1.214,5.397-1.209,7.508,0.012c1.205,0.695,1.897,1.728,1.897,2.832        c0,1.099-0.684,2.124-1.877,2.813C241.984,164.824,240.641,165.126,239.295,165.126z M239.238,159.922        c-0.949,0-1.896,0.203-2.599,0.608c-0.458,0.265-0.742,0.588-0.742,0.845c0,0.263,0.292,0.595,0.762,0.865        c1.424,0.823,3.821,0.827,5.235,0.013c0.458-0.265,0.742-0.588,0.742-0.845c0-0.263-0.292-0.595-0.762-0.865        C241.159,160.129,240.197,159.922,239.238,159.922z"/>
					</g>
                    <g>
						<path style="fill:#F9FBFC;"
                              d="M288.848,166.558c-1.355,0-2.713-0.306-3.772-0.918c-1.205-0.695-1.896-1.729-1.896-2.833        c0-1.099,0.684-2.124,1.877-2.813l0.001-0.001c2.099-1.211,5.395-1.206,7.507,0.013c1.206,0.696,1.897,1.729,1.896,2.834        c0,1.098-0.685,2.123-1.877,2.812C291.537,166.256,290.193,166.558,288.848,166.558z M286.192,161.962        c-0.457,0.264-0.741,0.588-0.741,0.845c0,0.263,0.292,0.595,0.762,0.866c1.422,0.821,3.821,0.826,5.234,0.012        c0.458-0.265,0.742-0.588,0.742-0.846c0-0.263-0.292-0.595-0.762-0.866C290.005,161.149,287.607,161.145,286.192,161.962        L286.192,161.962z"/>
					</g>
                    <g>
						<path style="fill:#F9FBFC;"
                              d="M257.631,154.651c-1.355,0-2.713-0.306-3.773-0.918c-1.205-0.695-1.896-1.729-1.896-2.833        c0-1.099,0.684-2.124,1.877-2.813l0.001-0.001c2.099-1.212,5.395-1.207,7.507,0.013c1.206,0.696,1.897,1.73,1.896,2.834        c0,1.098-0.685,2.123-1.877,2.812C260.32,154.35,258.977,154.651,257.631,154.651z M254.975,150.056        c-0.457,0.264-0.741,0.588-0.741,0.845c0,0.263,0.292,0.595,0.762,0.866c1.424,0.822,3.82,0.827,5.234,0.012        c0.458-0.265,0.742-0.588,0.742-0.846c0-0.263-0.292-0.595-0.762-0.866C258.787,149.244,256.39,149.238,254.975,150.056        L254.975,150.056z"/>
					</g>
				</g>
			</g>
		</g>
</g>
</svg>